<?xml version="1.0" standalone="no"?>
<!DOCTYPE svg PUBLIC "-//W3C//DTD SVG 20010904//EN"
 "http://www.w3.org/TR/2001/REC-SVG-20010904/DTD/svg10.dtd">
<svg version="1.0" xmlns="http://www.w3.org/2000/svg"
 width="1280.000000pt" height="1020.000000pt" viewBox="0 0 1280.000000 1020.000000"
 preserveAspectRatio="xMidYMid meet">
<g transform="translate(0.000000,1020.000000) scale(0.100000,-0.100000)"
fill="#000000" stroke="none">
<path d="M4955 10078 c-163 -24 -300 -54 -394 -84 -286 -93 -577 -285 -772
-509 -233 -267 -397 -634 -425 -952 -4 -39 -10 -77 -15 -85 -7 -11 -191 -14
-1011 -18 l-1003 -6 -96 -27 c-232 -64 -377 -140 -563 -296 -269 -226 -486
-611 -566 -1001 -52 -253 -50 -151 -50 -2845 0 -2667 -1 -2569 45 -2822 35
-190 129 -440 227 -602 83 -139 154 -229 272 -347 214 -213 439 -332 725 -383
l114 -21 4957 0 4957 0 114 21 c286 51 511 170 725 383 304 303 464 650 529
1146 22 170 22 5074 0 5252 -73 584 -333 1051 -740 1325 -182 123 -400 202
-602 219 -46 4 -87 12 -92 18 -6 7 -11 147 -13 326 -3 305 -4 316 -26 357 -46
88 -147 158 -260 182 -37 8 -304 11 -873 11 -921 0 -908 1 -1017 -69 -63 -41
-90 -73 -122 -143 -18 -40 -20 -67 -20 -349 0 -224 -3 -308 -12 -317 -15 -15
-201 -17 -228 -2 -13 7 -20 27 -25 72 -72 641 -487 1192 -1083 1437 -163 66
-271 94 -519 130 -89 14 -2050 13 -2138 -1z m2245 -532 c439 -105 777 -403
925 -816 49 -139 63 -237 85 -590 6 -91 13 -177 16 -192 l6 -28 1565 0 c1376
0 1573 -2 1627 -15 165 -42 278 -108 412 -240 194 -191 314 -429 364 -719 20
-116 20 -159 20 -2689 0 -2265 -2 -2583 -15 -2667 -84 -514 -414 -914 -815
-986 -112 -20 -9868 -20 -9980 0 -401 72 -731 472 -815 986 -13 84 -15 402
-15 2667 0 2530 0 2573 20 2689 50 290 170 528 364 719 134 132 247 198 412
240 54 13 213 15 1252 15 655 0 1193 3 1196 8 2 4 11 111 20 237 9 127 21 268
27 315 62 476 393 875 854 1029 182 61 148 59 1325 57 996 -2 1080 -3 1150
-20z"/>
<path d="M4554 8300 c-109 -44 -112 -309 -4 -365 25 -13 218 -15 1460 -15
1598 0 1471 -6 1512 73 18 33 23 59 23 122 0 94 -21 147 -69 176 -30 18 -79
19 -1466 18 -789 0 -1445 -4 -1456 -9z"/>
<path d="M5790 6934 c-167 -15 -439 -71 -601 -125 -604 -199 -1102 -590 -1453
-1139 -70 -110 -208 -398 -254 -531 -152 -438 -190 -913 -108 -1369 186 -1033
961 -1867 1979 -2129 567 -147 1147 -107 1697 116 597 242 1091 698 1384 1280
135 269 207 493 263 823 14 83 18 163 18 385 0 306 -12 412 -75 665 -63 251
-191 554 -325 765 -164 258 -427 546 -655 717 -292 218 -626 381 -950 463
-104 27 -131 32 -305 61 -87 15 -512 27 -615 18z m495 -429 c409 -48 773 -194
1109 -443 119 -88 347 -313 433 -427 316 -419 473 -880 473 -1391 0 -352 -75
-672 -235 -999 -220 -449 -588 -815 -1040 -1036 -328 -159 -629 -229 -997
-229 -213 0 -350 16 -538 61 -394 96 -746 291 -1042 577 -607 586 -838 1444
-607 2252 207 721 757 1296 1471 1534 307 103 658 139 973 101z"/>
<path d="M5840 6203 c-354 -34 -691 -144 -935 -303 -257 -168 -460 -399 -603
-685 -125 -252 -210 -570 -215 -812 -2 -92 -1 -95 26 -119 32 -28 82 -32 114
-9 26 18 43 72 43 137 0 69 36 269 71 393 115 406 346 733 664 937 226 146
503 239 800 269 149 15 185 27 208 66 16 28 17 38 7 68 -19 57 -59 70 -180 58z"/>
</g>
</svg>
